HIERARCHY
ROOT Hips
{
	OFFSET -14.64140 90.27770 -84.91600
	CHANNELS 6 Xposition Yposition Zposition Zrotation Xrotation Yrotation
	JOINT Spine
	{
		OFFSET 0.00000 13.20850 -1.60436
		CHANNELS 3 Zrotation Xrotation Yrotation
		JOINT Spine1
		{
			OFFSET 0.00000 8.61716 0.00000
			CHANNELS 3 Zrotation Xrotation Yrotation
			JOINT Spine2
			{
				OFFSET 0.00000 8.61717 0.00000
				CHANNELS 3 Zrotation Xrotation Yrotation
				JOINT Spine3
				{
					OFFSET 0.00000 8.61717 0.00000
					CHANNELS 3 Zrotation Xrotation Yrotation
					JOINT Neck
					{
						OFFSET 0.00000 11.07920 1.10792
						CHANNELS 3 Zrotation Xrotation Yrotation
						JOINT Neck1
						{
							OFFSET 0.00000 7.08032 0.00000
							CHANNELS 3 Zrotation Xrotation Yrotation
							JOINT Head
							{
								OFFSET 0.00000 7.08031 0.00000
								CHANNELS 3 Zrotation Xrotation Yrotation
								End site
								{
									OFFSET 0.00000 0.00000 0.00000
								}
							}
						}
					}
					JOINT RightShoulder
					{
						OFFSET -0.01000 7.91373 5.19711
						CHANNELS 3 Zrotation Xrotation Yrotation
						JOINT RightArm
						{
							OFFSET -18.41580 0.00000 0.00000
							CHANNELS 3 Zrotation Xrotation Yrotation
							JOINT RightForeArm
							{
								OFFSET -29.11090 0.00000 0.00000
								CHANNELS 3 Zrotation Xrotation Yrotation
								JOINT RightHand
								{
									OFFSET -24.65040 0.00000 0.00000
									CHANNELS 3 Zrotation Xrotation Yrotation
									JOINT RightHandThumb1
									{
										OFFSET -5.35114 -0.85590 3.97906
										CHANNELS 3 Zrotation Xrotation Yrotation
										JOINT RightHandThumb2
										{
											OFFSET -4.52789 0.00000 0.00000
											CHANNELS 3 Zrotation Xrotation Yrotation
											JOINT RightHandThumb3
											{
												OFFSET -2.46976 0.00000 0.00000
												CHANNELS 3 Zrotation Xrotation Yrotation
												End site
												{
													OFFSET 0.00000 0.00000 0.00000
												}
											}
										}
									}
									JOINT RightHandIndex1
									{
										OFFSET -14.26970 0.00000 2.88139
										CHANNELS 3 Zrotation Xrotation Yrotation
										JOINT RightHandIndex2
										{
											OFFSET -5.48836 0.00000 0.00000
											CHANNELS 3 Zrotation Xrotation Yrotation
											JOINT RightHandIndex3
											{
												OFFSET -3.01859 0.00000 0.00000
												CHANNELS 3 Zrotation Xrotation Yrotation
												End site
												{
													OFFSET 0.00000 0.00000 0.00000
												}
											}
										}
									}
									JOINT RightHandMiddle1
									{
										OFFSET -14.26970 0.00000 -0.09147
										CHANNELS 3 Zrotation Xrotation Yrotation
										JOINT RightHandMiddle2
										{
											OFFSET -6.17441 0.00000 0.00000
											CHANNELS 3 Zrotation Xrotation Yrotation
											JOINT RightHandMiddle3
											{
												OFFSET -3.56743 0.00000 0.00000
												CHANNELS 3 Zrotation Xrotation Yrotation
												End site
												{
													OFFSET 0.00000 0.00000 0.00000
												}
											}
										}
									}
									JOINT RightHandRing1
									{
										OFFSET -12.69180 0.00000 -3.06433
										CHANNELS 3 Zrotation Xrotation Yrotation
										JOINT RightHandRing2
										{
											OFFSET -5.62556 0.00000 0.00000
											CHANNELS 3 Zrotation Xrotation Yrotation
											JOINT RightHandRing3
											{
												OFFSET -3.56744 0.00000 0.00000
												CHANNELS 3 Zrotation Xrotation Yrotation
												End site
												{
													OFFSET 0.00000 0.00000 0.00000
												}
											}
										}
									}
									JOINT RightHandPinky1
									{
										OFFSET -11.11390 0.00000 -6.03719
										CHANNELS 3 Zrotation Xrotation Yrotation
										JOINT RightHandPinky2
										{
											OFFSET -4.52789 0.00000 0.00000
											CHANNELS 3 Zrotation Xrotation Yrotation
											JOINT RightHandPinky3
											{
												OFFSET -2.46976 0.00000 0.00000
												CHANNELS 3 Zrotation Xrotation Yrotation
												End site
												{
													OFFSET 0.00000 0.00000 0.00000
												}
											}
										}
									}
								}
							}
						}
					}
					JOINT LeftShoulder
					{
						OFFSET 0.01000 7.91373 5.19711
						CHANNELS 3 Zrotation Xrotation Yrotation
						JOINT LeftArm
						{
							OFFSET 18.41580 0.00000 0.00000
							CHANNELS 3 Zrotation Xrotation Yrotation
							JOINT LeftForeArm
							{
								OFFSET 29.11090 0.00000 0.00000
								CHANNELS 3 Zrotation Xrotation Yrotation
								JOINT LeftHand
								{
									OFFSET 24.65040 0.00000 0.00000
									CHANNELS 3 Zrotation Xrotation Yrotation
									JOINT LeftHandThumb1
									{
										OFFSET 5.35114 -0.85590 3.97906
										CHANNELS 3 Zrotation Xrotation Yrotation
										JOINT LeftHandThumb2
										{
											OFFSET 4.52789 0.00000 0.00000
											CHANNELS 3 Zrotation Xrotation Yrotation
											JOINT LeftHandThumb3
											{
												OFFSET 2.46977 0.00000 0.00000
												CHANNELS 3 Zrotation Xrotation Yrotation
												End site
												{
													OFFSET 0.00000 0.00000 0.00000
												}
											}
										}
									}
									JOINT LeftHandIndex1
									{
										OFFSET 14.26970 0.00000 2.88139
										CHANNELS 3 Zrotation Xrotation Yrotation
										JOINT LeftHandIndex2
										{
											OFFSET 5.48836 0.00000 0.00000
											CHANNELS 3 Zrotation Xrotation Yrotation
											JOINT LeftHandIndex3
											{
												OFFSET 3.01859 0.00000 0.00000
												CHANNELS 3 Zrotation Xrotation Yrotation
												End site
												{
													OFFSET 0.00000 0.00000 0.00000
												}
											}
										}
									}
									JOINT LeftHandMiddle1
									{
										OFFSET 14.26970 0.00000 -0.09147
										CHANNELS 3 Zrotation Xrotation Yrotation
										JOINT LeftHandMiddle2
										{
											OFFSET 6.17440 0.00000 0.00000
											CHANNELS 3 Zrotation Xrotation Yrotation
											JOINT LeftHandMiddle3
											{
												OFFSET 3.56744 0.00000 0.00000
												CHANNELS 3 Zrotation Xrotation Yrotation
												End site
												{
													OFFSET 0.00000 0.00000 0.00000
												}
											}
										}
									}
									JOINT LeftHandRing1
									{
										OFFSET 12.69180 0.00000 -3.06433
										CHANNELS 3 Zrotation Xrotation Yrotation
										JOINT LeftHandRing2
										{
											OFFSET 5.62556 0.00000 0.00000
											CHANNELS 3 Zrotation Xrotation Yrotation
											JOINT LeftHandRing3
											{
												OFFSET 3.56744 0.00000 0.00000
												CHANNELS 3 Zrotation Xrotation Yrotation
												End site
												{
													OFFSET 0.00000 0.00000 0.00000
												}
											}
										}
									}
									JOINT LeftHandPinky1
									{
										OFFSET 11.11390 0.00000 -6.03719
										CHANNELS 3 Zrotation Xrotation Yrotation
										JOINT LeftHandPinky2
										{
											OFFSET 4.52789 0.00000 0.00000
											CHANNELS 3 Zrotation Xrotation Yrotation
											JOINT LeftHandPinky3
											{
												OFFSET 2.46976 0.00000 0.00000
												CHANNELS 3 Zrotation Xrotation Yrotation
												End site
												{
													OFFSET 0.00000 0.00000 0.00000
												}
											}
										}
									}
								}
							}
						}
					}
					JOINT pCube4
					{
						OFFSET 0.00000 10.91090 1.10792
						CHANNELS 3 Zrotation Xrotation Yrotation
						End site
						{
							OFFSET 0.00000 0.00000 0.00000
						}
					}
				}
			}
		}
	}
	JOINT RightUpLeg
	{
		OFFSET -9.98441 0.00000 0.00000
		CHANNELS 3 Zrotation Xrotation Yrotation
		JOINT RightLeg
		{
			OFFSET 0.00000 -42.11790 0.00000
			CHANNELS 3 Zrotation Xrotation Yrotation
			JOINT RightFoot
			{
				OFFSET 0.00000 -45.00020 -0.00001
				CHANNELS 3 Zrotation Xrotation Yrotation
				JOINT RightForeFoot
				{
					OFFSET 0.00000 -3.74820 0.00000
					CHANNELS 3 Zrotation Xrotation Yrotation
					JOINT RightToeBase
					{
						OFFSET 0.00000 0.06325 14.43120
						CHANNELS 3 Zrotation Xrotation Yrotation
						End site
						{
							OFFSET 0.00000 0.00000 0.00000
						}
					}
				}
			}
		}
	}
	JOINT LeftUpLeg
	{
		OFFSET 9.98441 0.00000 0.00000
		CHANNELS 3 Zrotation Xrotation Yrotation
		JOINT LeftLeg
		{
			OFFSET 0.00000 -42.11800 0.00000
			CHANNELS 3 Zrotation Xrotation Yrotation
			JOINT LeftFoot
			{
				OFFSET 0.00000 -45.00070 0.00000
				CHANNELS 3 Zrotation Xrotation Yrotation
				JOINT LeftForeFoot
				{
					OFFSET 0.00000 -3.74824 0.00000
					CHANNELS 3 Zrotation Xrotation Yrotation
					JOINT LeftToeBase
					{
						OFFSET 0.00000 0.06325 14.43110
						CHANNELS 3 Zrotation Xrotation Yrotation
						End site
						{
							OFFSET 0.00000 0.00000 0.00000
						}
					}
				}
			}
		}
	}
}
MOTION
Frames: 4
Frame Time: 0.050000
-0.007470807440560222 0.03945195902599184 -0.003935442523190754 0.0235287541216635 -0.027248376638814728 0.019360711233393973 3.480184976225054 3.432643455565806 -1.9780691749137913 -0.8115977104883432 3.4681792234944733 0.40485209485027285 -0.6746318755642781 -0.7892100427756356 -0.27998816359948414 -0.07991642557911155 -0.020060639741310338 -0.5084318088233425 -0.05314608028529631 11.839440271517486 -0.8625036369154369 0.30389114354953356 -0.35504155662850967 -1.6620400625624845 0.6369277810384196 -16.422621386292 -0.1872886839324949 -7.643944251571858 3.0372802822303915 -16.146431889767214 77.68174449932712 5.578892773341342 9.800384432739165 5.985085455188759 1.4906304196984261 96.85708923850127 3.422445278823378 0.08221328587259788 -0.031631610406110684 4.554414649316668 -0.11698092113917741 -1.6370338421704327 -0.016159774483096218 0.03935531392740066 -56.19481329096782 0.029321836389661952 -0.004807842665096607 -56.188466793410775 -38.76216860452975 0.020554200632225766 -0.004258657325727179 -0.00631543680115553 0.013239082724876944 0.0021188597365413902 0.04880152615122769 -0.04218586600283999 -0.005460840904409751 -36.73936927523977 -0.010588104378837912 -0.03866293322596282 0.008416239709358975 0.006270903949325734 0.02955432025103396 -0.029688377765849885 -0.01896525193109329 0.035762704660270206 -19.782362749493863 -0.004365853736306823 -0.030392325362900766 0.02392449938092843 -0.031732089725318526 0.04761899748490424 0.020555354662602 0.03927797673593464 0.018479570655749514 24.08440117800695 -0.03515202866172098 0.026188320242120706 28.846952961418165 -0.019339017264544487 0.002652556927760812 28.872497748569796 0.02471585404455238 -0.023873283548333193 8.729542462936774 2.1444711912137167 12.94665393796678 -72.39368970640946 27.314679584412346 -18.196176074020837 -17.932055755880558 1.4760827027306203 -90.83746401484422 -10.399587564270384 -7.019513762239942 3.437259330065049 -0.5163747381768463 0.05645376453154256 -8.144992179296022 0.02381020452982467 -0.03158453114680437 44.547758371154316 -0.020637640681088757 0.03937753406863865 44.59391278410491 12.46758762364562 0.03338338174374073 -0.0035251542992036852 -0.00031044957976768636 -0.020129284847049404 -0.018607974682849214 -0.022270199924610018 0.022868212098267247 -0.005206584887837161 11.099104848766261 -0.006730496415403145 0.0019901323756525277 0.0036838245085036156 -0.021850627276123923 0.03245790231698031 0.04964155791783434 0.006859690002921673 0.03707463684289915 4.7879805994379305 -0.03284674821388515 0.005855080507295633 -0.007608618111213847 0.044086288591056066 0.03391732716672656 0.011217165722631253 0.039891401250701314 0.016329073856535124 -5.5675281330741235 0.024766868515670278 0.037910221890502 -6.736736322596754 0.0187254368147363 0.0011343538743052188 -6.733728488609631 0.0025850683082494197 0.03042109616028774 -0.01995044386640741 -0.03994867074942386 0.046824939413048924 8.061256503048371 3.495242872741527 -19.24750629306029 -0.028391561453570517 10.40207803152151 -0.023946955972868434 -5.639782098787843 -15.665145572317337 3.2299719012182786 0.013868524066912694 -0.026615279288600507 -0.04361948365996854 0.038307060776683645 4.686653267677208 0.010417572353510433 12.417006080978394 -8.215522627840913 6.910581135903657 -0.016799054161515663 46.39324029455951 -0.032608113365693955 -4.302307960077291 -14.733162885084864 -3.871534968364151 0.040709311463454315 0.022018937704809362 -0.0439469639345104 0.004738743836802192 -10.698333536638959 -0.022652246745650376 
0.01503422942298751 0.03327890810929082 0.04051325510885104 -0.04484184700368435 0.013130049322864887 0.03532803778177392 3.222509185444495 3.569809982594409 -1.8921618872829575 -0.8247293747279895 3.5221123575438664 0.3921397382605968 -0.6522786784706837 -0.7936790554201207 -0.30855814152117317 -0.13525533803629564 -0.018741300456619227 -0.540667983883034 -0.07127589196863961 11.686139426721866 -0.6903270243129362 0.2696151058726026 -0.4625899363687631 -1.4291906917435242 0.607972464997168 -16.375130512504935 -0.18075135949705082 -7.227940533880011 2.8633874554515777 -15.981481844696397 77.28169070410601 5.524061935538656 8.375067705055494 7.963375662752308 2.50946958704396 96.01671216271401 4.004609715086927 0.028873894823741135 -0.44956310062928495 4.517399556573007 -0.15465891490070321 -1.5861542216913807 -0.020489467343809464 0.011946425709216784 -56.24547296766184 -0.009932327650724314 0.01948907500151395 -56.26952347855412 -38.78469460253421 -0.02432511781704918 -0.04552955741952442 -0.01983990319633797 -0.04820328958947173 0.013264190791310174 -0.01680485046682169 -0.04652531864576159 -0.007289823164980514 -36.71167753845446 -0.005230511023140979 0.04506121979427577 -0.03769459921424284 0.04801815661461411 0.03012504005808988 -0.020440259877001984 0.02132405463980219 0.048930499526647776 -19.75053107070785 -0.03474539279130401 -0.008457488987167049 0.027062203951220262 0.023277716363378314 0.04508171186765199 -0.004406072266754699 0.029505997413432898 0.02151365463306807 24.05398162947238 -0.02816579589857982 -0.005860568033296407 28.855491653369707 0.008262658511511025 -0.010645102984534277 28.835388843798032 -0.008476100068620984 -0.03705317304165628 8.47067553043464 2.103863422608141 12.996907110843074 -72.2184835541143 27.141260430803037 -17.251376039583803 -22.499989692767432 3.4623233381181366 -90.74766053805187 -11.919613905340025 -8.051206807255744 4.345563460296279 -0.4572637425193443 0.020954891404385834 -8.15948940364895 0.0008222282021934858 -0.028772541861700144 44.52628172826427 0.005505914415131572 0.007416456174021694 44.55284348868796 12.50912555369784 0.03403194045638804 -0.02310084689498183 0.028995409067976246 0.04686850430978399 0.04385727020863182 -0.01232057144859608 0.0034288834876581528 0.013020575994374577 11.143869189250273 0.011357717469397932 0.02575269144113782 -0.03502860316028567 -0.033293834637852224 0.02276590915472734 -0.026877480826737844 0.003260378779512323 0.026365802711475553 4.766517112041679 -0.03735586343575588 -0.010282521142132628 0.010747483357625744 -0.03144996768091476 -0.0010687528262141256 -0.034191156308373556 -0.010358264237332953 -0.014504482346257633 -5.582654239357493 0.030859522456964092 0.011440949151854136 -6.733369258768106 0.030682006937874467 -0.03410601398097704 -6.687213647918427 0.043067606153667976 -0.01294064387689825 0.04676382067937601 0.028674440571240065 0.04757879677643971 8.057555394144222 3.452650559668438 -19.239165331919786 -0.017383939859177223 10.352334631844112 0.010917582743663144 -5.631280723629289 -15.618062657024204 3.1673807310821758 0.023144044356383297 -0.016567791355723997 0.028124512774454342 0.012254194820016287 4.672231143089898 -0.017717019008482056 12.439171752607677 -8.257350305485092 6.900352241933964 0.02105231406774831 46.407039679867005 -0.011716295237627742 -4.304810728677294 -14.73737888524798 -3.833553433462709 -0.04776282949435569 -0.006507213725244302 -0.02318995630870428 0.007673336636407549 -10.704428749280481 0.015521441019486918 
-0.03304454519350899 0.04394635399648182 -0.03911084459527259 -0.027039622739166425 0.040136214648317126 -0.020336270747152982 3.044231381760913 3.7734108746210357 -1.8685591344157795 -0.8963622938981094 3.4961246818699694 0.41209531827506585 -0.7194419353310765 -0.7824260127195152 -0.2635969893129059 -0.11131448964173762 0.03114017739222922 -0.5502760953696365 -0.126062318805568 11.487185864140145 -0.6068323925836727 0.25725617264757805 -0.537773941424347 -1.3620055412780092 0.5558256191735911 -16.468340739493698 -0.16267056894753937 -6.809676549903305 2.8601880834017233 -15.917618456711514 77.27321514247271 5.596739580417424 6.5009372994389505 10.307252967634753 3.6632554842625185 93.32470866838838 4.943647776548544 -0.08275629133514147 -1.0740014458615517 4.552611478401259 -0.12245425092879506 -1.5880133883185608 -0.02113470824156085 0.00517314952435237 -56.23895856128905 0.03717044848356732 -0.01571515671250719 -56.24929942420354 -38.79850543515134 0.01577038904791918 0.049968138743610724 0.005185665076807642 0.03910279924655158 -0.005383967767395479 -0.047389624266234 -0.002235057295908686 -0.0026464690626631475 -36.71204762026382 -0.008727695800754314 0.006244946616053362 -0.02607314684338514 0.04421073398511953 0.037448570450237605 -0.0014140585318693155 -0.0020204098180307568 0.031557910125015055 -19.7783996879036 -0.012465890305354999 0.0013015124409220715 -0.023830315148619642 -0.00023528151084218287 -0.0409228729925946 -0.0386574553106896 0.039752726398907826 0.0017603852635118512 24.050423111720953 -0.036638178197303826 0.03696354452221084 28.900368450844542 0.00968858504803684 0.04841950332979691 28.879236552515778 -0.040029218528811465 -0.004749773667228637 8.09791109235695 2.1468579323081936 12.932755017546892 -72.20802950251768 26.609486709545827 -16.029745040248375 -27.0740214467214 5.217780745825078 -89.38570751485445 -13.035823491179762 -8.37060934358004 4.8594861102857285 -0.5163267260421527 0.030220830608007933 -8.156580132416893 -0.009947323975163859 0.005226778033010758 44.54064917958272 -0.006005058488801719 0.004567352672287165 44.58447831602841 12.430725061496307 0.00539834423815919 -0.03454722674090539 0.01675702267056445 -0.03508276621509022 0.019438636076633615 0.003497616512190022 -0.02113292183261678 0.04994122006390693 11.127872904199252 -0.003518277415461405 -0.01628042041461228 -0.023818528331531422 -0.048864732642557925 0.005586556588033549 0.006305798777252471 0.0370389855861264 0.023360176466509414 4.737174802922558 0.007685466541555293 0.02072121785144754 0.016272151529532264 -0.0158864806348134 0.017552981330400126 0.03904213831398796 -0.01739378756112374 0.021674471287877316 -5.636462570141068 -0.010808404533056802 0.043987593646131216 -6.694557976638212 -3.894428025392277e-05 0.03320327880314293 -6.721687592862076 0.003590629653025779 -0.031313382495363126 -0.04898179142264678 0.024761913936117062 0.0432929454466391 8.015489261329073 3.5266330804514183 -19.21666991636645 -0.011146039766698685 10.363520650370441 0.06075461049161117 -5.668630879566854 -15.661420412101068 3.212425007206818 -0.007842111109292522 -0.047815379629607406 0.022114302673870538 0.04763578316223276 4.70157031533322 0.011212657156916354 12.44571113225905 -8.267298456924683 6.859522703300437 -0.023268176699591987 46.33980225876594 0.04972215320312321 -4.276891100433321 -14.781103746147311 -3.8240773626768347 -0.02332149975621646 -0.032079283145990685 0.028155841896891447 0.002768877636877582 -10.701141260307619 -0.02400658268140901 
0.04968012677416472 0.03452069184975924 0.010730590776865008 0.04010141107043536 -0.034066317805808134 0.012854450636284693 2.912197187859271 3.8880340084960276 -1.859367015378011 -0.8322058558876321 3.5001833855545836 0.41021189947226216 -0.6345905607920325 -0.7279750355341188 -0.34572635064167057 -0.22781572637883674 0.031063436633203004 -0.5373666831267904 -0.23169560497650193 11.28649138038927 -0.6670300955004561 0.20531375018232273 -0.5880271444041868 -1.3151480320515785 0.5189643450137953 -16.53511087984241 -0.08188737337589101 -6.561140167625284 2.7489396628998777 -15.93380286049206 77.36573182107648 5.612334082142805 4.943783409484471 12.202726234549669 4.810509253446136 89.80021963475845 6.273560550195844 -0.1650390977771223 -1.5752776738742071 4.532734601354502 -0.10587041901786991 -1.5661756083782783 0.04209466008258058 -0.026252250551350817 -56.27749759763588 0.010119474777421462 -0.003346877787293405 -56.19287619749398 -38.790913504677064 -0.007322666730663515 -0.005045443945372229 -0.002240594948952983 0.034633256574740076 -0.0190667759845294 -0.03817896967749682 0.020088422465098604 0.04712102770374892 -36.67731855824394 -0.026224122035085937 0.013057085905143376 0.047611859321406935 -0.01746961542134647 0.03790513502722074 -0.040188624473116386 0.022273789637038105 0.02342205268295175 -19.79635612808356 0.018495807183332644 0.025356900229360383 0.014946161692271056 -0.010695373748003018 -0.01654731465660353 -0.013775005790479562 0.0007999756761987696 0.016528369367662617 24.048793217885834 0.03748070748870279 0.011375417978821098 28.870914492992732 -0.00712712225389766 -0.03412068033320632 28.844992736699346 0.049897558701287106 0.019432068773311356 7.893917075988623 2.0573169978606365 12.986585427429342 -72.34619737297949 26.0874755116203 -14.832582447974135 -30.330195153586523 6.407855545836764 -87.62732629717016 -14.02042592887316 -8.360678919112033 5.083560473854405 -0.46087182873413163 0.09832598786242946 -8.117998035186233 0.014505049936537777 -0.015523418225649304 44.55159412114261 -0.000505093258819923 -0.011107376054509316 44.54643888348297 12.454046200941553 0.01882181723917349 -0.03875081399558848 -0.02912153561213391 -0.04392679890318516 -0.02572509742779021 -0.017088563942010325 -0.02673289553658495 -0.035716281552218274 11.12259353025656 0.041802422140949716 0.02018304358410319 0.013666979201798449 -0.004390917544174761 0.032030373505092774 0.016974225947611672 -0.030474969628812357 0.0021689498742189033 4.75219797371204 -0.03938333127579385 0.04947349416190069 0.047566371867922036 0.02555640077740062 0.023152544904797855 -0.04332474851860356 0.02716989706091524 0.025074520210069888 -5.5924700827441765 0.01481515255176336 0.034224208179932894 -6.677916431679707 -0.048868078366990225 -0.014128984105533354 -6.731949773322867 -0.04008011501503839 -0.03797799720572591 -0.0001908967114051044 0.04925054483105028 -0.048008784379626246 8.000959726672223 3.4497702969165736 -19.256880321216784 -0.024779175480349004 10.364561879548088 -0.026423169773988387 -5.627671576719555 -15.682153351258764 3.2035123597110378 0.02957321127016731 -0.0010816691275233091 -0.011790014129400426 0.008821900071795775 4.712479268237407 -0.011547293233200983 12.440667865336316 -8.251510901167627 6.889410904816543 0.029701535633804465 46.414881747627796 0.042791234770796785 -4.357555108109076 -14.743455661207657 -3.868549876112987 0.03537618791940291 0.0189508981325552 -0.03178487125488036 0.008335596700146554 -10.768517160180014 -0.007219545300264147 
